<?xml version="1.0" encoding="UTF-8"?>
<svg version="1.1" xmlns="http://www.w3.org/2000/svg" width="24" height="24">
<path d="M0 0 C5.94 0 11.88 0 18 0 C18 5.94 18 11.88 18 18 C12.06 18 6.12 18 0 18 C0 12.06 0 6.12 0 0 Z M3.375 12.375 C1.78468592 13.89968321 1.78468592 13.89968321 2 16 C6.62 16 11.24 16 16 16 C15.34 14.68 14.68 13.36 14 12 C13.01 12 12.02 12 11 12 C11.33 12.99 11.66 13.98 12 15 C10.824375 14.01 10.824375 14.01 9.625 13 C6.45898197 10.44867402 6.45898197 10.44867402 3.375 12.375 Z " fill="#000000" transform="translate(3,3)"/>
</svg>
